<mxfile host="app.diagrams.net" agent="Mozilla/5.0 (Windows NT 10.0; Win64; x64; rv:130.0) Gecko/20100101 Firefox/130.0" version="24.7.7">
  <diagram name="PÃ¡gina-1" id="8KjAR00LLoLAXdVm-00y">
    <mxGraphModel dx="989" dy="514" grid="1" gridSize="10" guides="1" tooltips="1" connect="1" arrows="1" fold="1" page="1" pageScale="1" pageWidth="827" pageHeight="1169" math="0" shadow="0">
      <root>
        <mxCell id="0" />
        <mxCell id="1" parent="0" />
        <mxCell id="nZ5j-B5OcQxF__eQg0Yg-3" value="" style="group" vertex="1" connectable="0" parent="1">
          <mxGeometry x="464" y="90" width="80" height="118" as="geometry" />
        </mxCell>
        <mxCell id="nZ5j-B5OcQxF__eQg0Yg-1" value="" style="sketch=0;points=[[0,0,0],[0.25,0,0],[0.5,0,0],[0.75,0,0],[1,0,0],[0,1,0],[0.25,1,0],[0.5,1,0],[0.75,1,0],[1,1,0],[0,0.25,0],[0,0.5,0],[0,0.75,0],[1,0.25,0],[1,0.5,0],[1,0.75,0]];outlineConnect=0;fontColor=#232F3E;fillColor=#7AA116;strokeColor=#ffffff;dashed=0;verticalLabelPosition=bottom;verticalAlign=top;align=center;html=1;fontSize=12;fontStyle=0;aspect=fixed;shape=mxgraph.aws4.resourceIcon;resIcon=mxgraph.aws4.s3;" vertex="1" parent="nZ5j-B5OcQxF__eQg0Yg-3">
          <mxGeometry x="1" width="78" height="78" as="geometry" />
        </mxCell>
        <mxCell id="nZ5j-B5OcQxF__eQg0Yg-2" value="&lt;div&gt;Content&lt;/div&gt;&lt;div&gt;S3 Bucket&lt;/div&gt;" style="text;html=1;align=center;verticalAlign=middle;resizable=0;points=[];autosize=1;strokeColor=none;fillColor=none;fontFamily=Roboto;fontSource=https%3A%2F%2Ffonts.googleapis.com%2Fcss%3Ffamily%3DRoboto;" vertex="1" parent="nZ5j-B5OcQxF__eQg0Yg-3">
          <mxGeometry y="78" width="80" height="40" as="geometry" />
        </mxCell>
        <mxCell id="nZ5j-B5OcQxF__eQg0Yg-6" value="" style="group" vertex="1" connectable="0" parent="1">
          <mxGeometry x="459" y="261" width="90" height="118" as="geometry" />
        </mxCell>
        <mxCell id="nZ5j-B5OcQxF__eQg0Yg-4" value="" style="sketch=0;points=[[0,0,0],[0.25,0,0],[0.5,0,0],[0.75,0,0],[1,0,0],[0,1,0],[0.25,1,0],[0.5,1,0],[0.75,1,0],[1,1,0],[0,0.25,0],[0,0.5,0],[0,0.75,0],[1,0.25,0],[1,0.5,0],[1,0.75,0]];outlineConnect=0;fontColor=#232F3E;fillColor=#8C4FFF;strokeColor=#ffffff;dashed=0;verticalLabelPosition=bottom;verticalAlign=top;align=center;html=1;fontSize=12;fontStyle=0;aspect=fixed;shape=mxgraph.aws4.resourceIcon;resIcon=mxgraph.aws4.cloudfront;" vertex="1" parent="nZ5j-B5OcQxF__eQg0Yg-6">
          <mxGeometry x="6" width="78" height="78" as="geometry" />
        </mxCell>
        <mxCell id="nZ5j-B5OcQxF__eQg0Yg-5" value="&lt;div&gt;Cloudfront&lt;/div&gt;&lt;div&gt;Distribution&lt;/div&gt;" style="text;html=1;align=center;verticalAlign=middle;resizable=0;points=[];autosize=1;strokeColor=none;fillColor=none;fontFamily=Roboto;fontSource=https%3A%2F%2Ffonts.googleapis.com%2Fcss%3Ffamily%3DRoboto;" vertex="1" parent="nZ5j-B5OcQxF__eQg0Yg-6">
          <mxGeometry y="78" width="90" height="40" as="geometry" />
        </mxCell>
        <mxCell id="nZ5j-B5OcQxF__eQg0Yg-12" value="" style="group" vertex="1" connectable="0" parent="1">
          <mxGeometry x="330" y="398" width="80" height="140" as="geometry" />
        </mxCell>
        <mxCell id="nZ5j-B5OcQxF__eQg0Yg-10" value="" style="sketch=0;points=[[0,0,0],[0.25,0,0],[0.5,0,0],[0.75,0,0],[1,0,0],[0,1,0],[0.25,1,0],[0.5,1,0],[0.75,1,0],[1,1,0],[0,0.25,0],[0,0.5,0],[0,0.75,0],[1,0.25,0],[1,0.5,0],[1,0.75,0]];outlineConnect=0;fontColor=#232F3E;fillColor=#C925D1;strokeColor=#ffffff;dashed=0;verticalLabelPosition=bottom;verticalAlign=top;align=center;html=1;fontSize=12;fontStyle=0;aspect=fixed;shape=mxgraph.aws4.resourceIcon;resIcon=mxgraph.aws4.dynamodb;" vertex="1" parent="nZ5j-B5OcQxF__eQg0Yg-12">
          <mxGeometry x="1" width="78" height="78" as="geometry" />
        </mxCell>
        <mxCell id="nZ5j-B5OcQxF__eQg0Yg-11" value="TOTP&lt;br&gt;DynamoDB&lt;br&gt;Table" style="text;html=1;align=center;verticalAlign=middle;resizable=0;points=[];autosize=1;strokeColor=none;fillColor=none;fontFamily=Roboto;fontSource=https%3A%2F%2Ffonts.googleapis.com%2Fcss%3Ffamily%3DRoboto;" vertex="1" parent="nZ5j-B5OcQxF__eQg0Yg-12">
          <mxGeometry y="80" width="80" height="60" as="geometry" />
        </mxCell>
        <mxCell id="nZ5j-B5OcQxF__eQg0Yg-15" value="" style="group" vertex="1" connectable="0" parent="1">
          <mxGeometry x="60" y="260" width="78" height="118" as="geometry" />
        </mxCell>
        <mxCell id="nZ5j-B5OcQxF__eQg0Yg-13" value="" style="sketch=0;points=[[0,0,0],[0.25,0,0],[0.5,0,0],[0.75,0,0],[1,0,0],[0,1,0],[0.25,1,0],[0.5,1,0],[0.75,1,0],[1,1,0],[0,0.25,0],[0,0.5,0],[0,0.75,0],[1,0.25,0],[1,0.5,0],[1,0.75,0]];outlineConnect=0;fontColor=#232F3E;fillColor=#8C4FFF;strokeColor=#ffffff;dashed=0;verticalLabelPosition=bottom;verticalAlign=top;align=center;html=1;fontSize=12;fontStyle=0;aspect=fixed;shape=mxgraph.aws4.resourceIcon;resIcon=mxgraph.aws4.api_gateway;" vertex="1" parent="nZ5j-B5OcQxF__eQg0Yg-15">
          <mxGeometry width="78" height="78" as="geometry" />
        </mxCell>
        <mxCell id="nZ5j-B5OcQxF__eQg0Yg-14" value="&lt;div&gt;AWS API&lt;/div&gt;&lt;div&gt;Gateway&lt;br&gt;&lt;/div&gt;" style="text;html=1;align=center;verticalAlign=middle;resizable=0;points=[];autosize=1;strokeColor=none;fillColor=none;fontFamily=Roboto;fontSource=https%3A%2F%2Ffonts.googleapis.com%2Fcss%3Ffamily%3DRoboto;" vertex="1" parent="nZ5j-B5OcQxF__eQg0Yg-15">
          <mxGeometry x="4" y="78" width="70" height="40" as="geometry" />
        </mxCell>
        <mxCell id="nZ5j-B5OcQxF__eQg0Yg-18" value="" style="group" vertex="1" connectable="0" parent="1">
          <mxGeometry x="190" y="90" width="100" height="120" as="geometry" />
        </mxCell>
        <mxCell id="nZ5j-B5OcQxF__eQg0Yg-16" value="" style="sketch=0;points=[[0,0,0],[0.25,0,0],[0.5,0,0],[0.75,0,0],[1,0,0],[0,1,0],[0.25,1,0],[0.5,1,0],[0.75,1,0],[1,1,0],[0,0.25,0],[0,0.5,0],[0,0.75,0],[1,0.25,0],[1,0.5,0],[1,0.75,0]];outlineConnect=0;fontColor=#232F3E;fillColor=#ED7100;strokeColor=#ffffff;dashed=0;verticalLabelPosition=bottom;verticalAlign=top;align=center;html=1;fontSize=12;fontStyle=0;aspect=fixed;shape=mxgraph.aws4.resourceIcon;resIcon=mxgraph.aws4.lambda;" vertex="1" parent="nZ5j-B5OcQxF__eQg0Yg-18">
          <mxGeometry x="11" width="78" height="78" as="geometry" />
        </mxCell>
        <mxCell id="nZ5j-B5OcQxF__eQg0Yg-17" value="Files&lt;br&gt;AWS Lambda" style="text;html=1;align=center;verticalAlign=middle;resizable=0;points=[];autosize=1;strokeColor=none;fillColor=none;fontFamily=Roboto;fontSource=https%3A%2F%2Ffonts.googleapis.com%2Fcss%3Ffamily%3DRoboto;" vertex="1" parent="nZ5j-B5OcQxF__eQg0Yg-18">
          <mxGeometry y="80" width="100" height="40" as="geometry" />
        </mxCell>
        <mxCell id="nZ5j-B5OcQxF__eQg0Yg-27" value="" style="group" vertex="1" connectable="0" parent="1">
          <mxGeometry x="190" y="398" width="100" height="118" as="geometry" />
        </mxCell>
        <mxCell id="nZ5j-B5OcQxF__eQg0Yg-25" value="" style="sketch=0;points=[[0,0,0],[0.25,0,0],[0.5,0,0],[0.75,0,0],[1,0,0],[0,1,0],[0.25,1,0],[0.5,1,0],[0.75,1,0],[1,1,0],[0,0.25,0],[0,0.5,0],[0,0.75,0],[1,0.25,0],[1,0.5,0],[1,0.75,0]];outlineConnect=0;fontColor=#232F3E;fillColor=#ED7100;strokeColor=#ffffff;dashed=0;verticalLabelPosition=bottom;verticalAlign=top;align=center;html=1;fontSize=12;fontStyle=0;aspect=fixed;shape=mxgraph.aws4.resourceIcon;resIcon=mxgraph.aws4.lambda;" vertex="1" parent="nZ5j-B5OcQxF__eQg0Yg-27">
          <mxGeometry x="11" width="78" height="78" as="geometry" />
        </mxCell>
        <mxCell id="nZ5j-B5OcQxF__eQg0Yg-26" value="Auth&lt;br&gt;AWS Lambda" style="text;html=1;align=center;verticalAlign=middle;resizable=0;points=[];autosize=1;strokeColor=none;fillColor=none;fontFamily=Roboto;fontSource=https%3A%2F%2Ffonts.googleapis.com%2Fcss%3Ffamily%3DRoboto;" vertex="1" parent="nZ5j-B5OcQxF__eQg0Yg-27">
          <mxGeometry y="78" width="100" height="40" as="geometry" />
        </mxCell>
        <mxCell id="nZ5j-B5OcQxF__eQg0Yg-33" value="" style="group" vertex="1" connectable="0" parent="1">
          <mxGeometry x="201" y="550" width="78" height="108" as="geometry" />
        </mxCell>
        <mxCell id="nZ5j-B5OcQxF__eQg0Yg-31" value="" style="sketch=0;points=[[0,0,0],[0.25,0,0],[0.5,0,0],[0.75,0,0],[1,0,0],[0,1,0],[0.25,1,0],[0.5,1,0],[0.75,1,0],[1,1,0],[0,0.25,0],[0,0.5,0],[0,0.75,0],[1,0.25,0],[1,0.5,0],[1,0.75,0]];outlineConnect=0;fontColor=#232F3E;fillColor=#DD344C;strokeColor=#ffffff;dashed=0;verticalLabelPosition=bottom;verticalAlign=top;align=center;html=1;fontSize=12;fontStyle=0;aspect=fixed;shape=mxgraph.aws4.resourceIcon;resIcon=mxgraph.aws4.simple_email_service;" vertex="1" parent="nZ5j-B5OcQxF__eQg0Yg-33">
          <mxGeometry width="78" height="78" as="geometry" />
        </mxCell>
        <mxCell id="nZ5j-B5OcQxF__eQg0Yg-32" value="AWS SES" style="text;html=1;align=center;verticalAlign=middle;resizable=0;points=[];autosize=1;strokeColor=none;fillColor=none;fontFamily=Roboto;fontSource=https%3A%2F%2Ffonts.googleapis.com%2Fcss%3Ffamily%3DRoboto;" vertex="1" parent="nZ5j-B5OcQxF__eQg0Yg-33">
          <mxGeometry x="3" y="78" width="70" height="30" as="geometry" />
        </mxCell>
        <mxCell id="nZ5j-B5OcQxF__eQg0Yg-39" value="" style="group" vertex="1" connectable="0" parent="1">
          <mxGeometry x="325.5" y="261" width="95" height="118" as="geometry" />
        </mxCell>
        <mxCell id="nZ5j-B5OcQxF__eQg0Yg-37" value="" style="sketch=0;points=[[0,0,0],[0.25,0,0],[0.5,0,0],[0.75,0,0],[1,0,0],[0,1,0],[0.25,1,0],[0.5,1,0],[0.75,1,0],[1,1,0],[0,0.25,0],[0,0.5,0],[0,0.75,0],[1,0.25,0],[1,0.5,0],[1,0.75,0]];outlineConnect=0;fontColor=#232F3E;fillColor=#ED7100;strokeColor=#ffffff;dashed=0;verticalLabelPosition=bottom;verticalAlign=top;align=center;html=1;fontSize=12;fontStyle=0;aspect=fixed;shape=mxgraph.aws4.resourceIcon;resIcon=mxgraph.aws4.lambda;" vertex="1" parent="nZ5j-B5OcQxF__eQg0Yg-39">
          <mxGeometry x="6" width="78" height="78" as="geometry" />
        </mxCell>
        <mxCell id="nZ5j-B5OcQxF__eQg0Yg-38" value="GetSignedUrl&lt;br&gt;AWS Lambda" style="text;html=1;align=center;verticalAlign=middle;resizable=0;points=[];autosize=1;strokeColor=none;fillColor=none;fontFamily=Roboto;fontSource=https%3A%2F%2Ffonts.googleapis.com%2Fcss%3Ffamily%3DRoboto;" vertex="1" parent="nZ5j-B5OcQxF__eQg0Yg-39">
          <mxGeometry x="-5" y="78" width="100" height="40" as="geometry" />
        </mxCell>
        <mxCell id="nZ5j-B5OcQxF__eQg0Yg-81" style="edgeStyle=orthogonalEdgeStyle;rounded=0;orthogonalLoop=1;jettySize=auto;html=1;exitX=0;exitY=0.5;exitDx=0;exitDy=0;" edge="1" parent="1" source="nZ5j-B5OcQxF__eQg0Yg-59" target="nZ5j-B5OcQxF__eQg0Yg-1">
          <mxGeometry relative="1" as="geometry" />
        </mxCell>
        <mxCell id="nZ5j-B5OcQxF__eQg0Yg-59" value="" style="shape=image;html=1;verticalAlign=top;verticalLabelPosition=bottom;labelBackgroundColor=#ffffff;imageAspect=0;aspect=fixed;image=https://cdn0.iconfinder.com/data/icons/google-material-design-3-0/48/ic_http_48px-128.png" vertex="1" parent="1">
          <mxGeometry x="650" y="104" width="50" height="50" as="geometry" />
        </mxCell>
        <mxCell id="nZ5j-B5OcQxF__eQg0Yg-61" value="&lt;div style=&quot;font-size: 10px;&quot;&gt;Upload Using&lt;/div&gt;&lt;div style=&quot;font-size: 10px;&quot;&gt;Signed URL&lt;/div&gt;" style="text;html=1;align=center;verticalAlign=middle;resizable=0;points=[];autosize=1;strokeColor=none;fillColor=none;fontFamily=Roboto;fontSource=https%3A%2F%2Ffonts.googleapis.com%2Fcss%3Ffamily%3DRoboto;fontSize=10;" vertex="1" parent="1">
          <mxGeometry x="561" y="130" width="80" height="40" as="geometry" />
        </mxCell>
        <mxCell id="nZ5j-B5OcQxF__eQg0Yg-62" value="" style="group" vertex="1" connectable="0" parent="1">
          <mxGeometry x="316" y="90" width="110" height="118" as="geometry" />
        </mxCell>
        <mxCell id="nZ5j-B5OcQxF__eQg0Yg-7" value="" style="sketch=0;points=[[0,0,0],[0.25,0,0],[0.5,0,0],[0.75,0,0],[1,0,0],[0,1,0],[0.25,1,0],[0.5,1,0],[0.75,1,0],[1,1,0],[0,0.25,0],[0,0.5,0],[0,0.75,0],[1,0.25,0],[1,0.5,0],[1,0.75,0]];outlineConnect=0;fontColor=#232F3E;fillColor=#C925D1;strokeColor=#ffffff;dashed=0;verticalLabelPosition=bottom;verticalAlign=top;align=center;html=1;fontSize=12;fontStyle=0;aspect=fixed;shape=mxgraph.aws4.resourceIcon;resIcon=mxgraph.aws4.dynamodb;" vertex="1" parent="nZ5j-B5OcQxF__eQg0Yg-62">
          <mxGeometry x="16" width="78" height="78" as="geometry" />
        </mxCell>
        <mxCell id="nZ5j-B5OcQxF__eQg0Yg-8" value="&lt;div&gt;File&amp;nbsp;&lt;/div&gt;&lt;div&gt;DynamoDB Table&lt;/div&gt;" style="text;html=1;align=center;verticalAlign=middle;resizable=0;points=[];autosize=1;strokeColor=none;fillColor=none;fontFamily=Roboto;fontSource=https%3A%2F%2Ffonts.googleapis.com%2Fcss%3Ffamily%3DRoboto;" vertex="1" parent="nZ5j-B5OcQxF__eQg0Yg-62">
          <mxGeometry y="78" width="110" height="40" as="geometry" />
        </mxCell>
        <mxCell id="nZ5j-B5OcQxF__eQg0Yg-66" style="edgeStyle=orthogonalEdgeStyle;rounded=0;orthogonalLoop=1;jettySize=auto;html=1;exitX=1;exitY=0.5;exitDx=0;exitDy=0;exitPerimeter=0;entryX=0;entryY=0.5;entryDx=0;entryDy=0;entryPerimeter=0;" edge="1" parent="1" source="nZ5j-B5OcQxF__eQg0Yg-16" target="nZ5j-B5OcQxF__eQg0Yg-7">
          <mxGeometry relative="1" as="geometry" />
        </mxCell>
        <mxCell id="nZ5j-B5OcQxF__eQg0Yg-67" style="edgeStyle=orthogonalEdgeStyle;rounded=0;orthogonalLoop=1;jettySize=auto;html=1;exitX=1;exitY=0.5;exitDx=0;exitDy=0;exitPerimeter=0;entryX=0;entryY=0.5;entryDx=0;entryDy=0;entryPerimeter=0;" edge="1" parent="1" source="nZ5j-B5OcQxF__eQg0Yg-13" target="nZ5j-B5OcQxF__eQg0Yg-25">
          <mxGeometry relative="1" as="geometry" />
        </mxCell>
        <mxCell id="nZ5j-B5OcQxF__eQg0Yg-68" style="edgeStyle=orthogonalEdgeStyle;rounded=0;orthogonalLoop=1;jettySize=auto;html=1;exitX=1;exitY=0.5;exitDx=0;exitDy=0;exitPerimeter=0;entryX=0;entryY=0.5;entryDx=0;entryDy=0;entryPerimeter=0;" edge="1" parent="1" source="nZ5j-B5OcQxF__eQg0Yg-25" target="nZ5j-B5OcQxF__eQg0Yg-10">
          <mxGeometry relative="1" as="geometry" />
        </mxCell>
        <mxCell id="nZ5j-B5OcQxF__eQg0Yg-69" style="edgeStyle=orthogonalEdgeStyle;rounded=0;orthogonalLoop=1;jettySize=auto;html=1;entryX=0.5;entryY=0;entryDx=0;entryDy=0;entryPerimeter=0;" edge="1" parent="1" source="nZ5j-B5OcQxF__eQg0Yg-26" target="nZ5j-B5OcQxF__eQg0Yg-31">
          <mxGeometry relative="1" as="geometry" />
        </mxCell>
        <mxCell id="nZ5j-B5OcQxF__eQg0Yg-74" style="edgeStyle=orthogonalEdgeStyle;rounded=0;orthogonalLoop=1;jettySize=auto;html=1;" edge="1" parent="1" source="nZ5j-B5OcQxF__eQg0Yg-71" target="nZ5j-B5OcQxF__eQg0Yg-17">
          <mxGeometry relative="1" as="geometry" />
        </mxCell>
        <mxCell id="nZ5j-B5OcQxF__eQg0Yg-71" value="" style="sketch=0;outlineConnect=0;fontColor=#232F3E;gradientColor=none;fillColor=#7AA116;strokeColor=none;dashed=0;verticalLabelPosition=bottom;verticalAlign=top;align=center;html=1;fontSize=12;fontStyle=0;aspect=fixed;pointerEvents=1;shape=mxgraph.aws4.lambda_function;" vertex="1" parent="1">
          <mxGeometry x="220" y="280" width="40" height="40" as="geometry" />
        </mxCell>
        <mxCell id="nZ5j-B5OcQxF__eQg0Yg-72" style="edgeStyle=orthogonalEdgeStyle;rounded=0;orthogonalLoop=1;jettySize=auto;html=1;exitX=1;exitY=0.5;exitDx=0;exitDy=0;exitPerimeter=0;" edge="1" parent="1" source="nZ5j-B5OcQxF__eQg0Yg-13" target="nZ5j-B5OcQxF__eQg0Yg-71">
          <mxGeometry relative="1" as="geometry" />
        </mxCell>
        <mxCell id="nZ5j-B5OcQxF__eQg0Yg-73" value="&lt;div style=&quot;font-size: 10px;&quot;&gt;Authorizer&lt;/div&gt;" style="text;html=1;align=center;verticalAlign=middle;resizable=0;points=[];autosize=1;strokeColor=none;fillColor=none;fontFamily=Roboto;fontSource=https%3A%2F%2Ffonts.googleapis.com%2Fcss%3Ffamily%3DRoboto;fontSize=10;" vertex="1" parent="1">
          <mxGeometry x="206" y="320" width="70" height="30" as="geometry" />
        </mxCell>
        <mxCell id="nZ5j-B5OcQxF__eQg0Yg-75" value="&lt;div style=&quot;font-size: 10px;&quot;&gt;Get Signed&lt;/div&gt;&lt;div style=&quot;font-size: 10px;&quot;&gt;Upload URL&lt;/div&gt;" style="text;html=1;align=center;verticalAlign=middle;resizable=0;points=[];autosize=1;strokeColor=none;fillColor=none;fontSize=10;fontFamily=Roboto;fontSource=https%3A%2F%2Ffonts.googleapis.com%2Fcss%3Ffamily%3DRoboto;" vertex="1" parent="1">
          <mxGeometry x="231" y="230" width="80" height="40" as="geometry" />
        </mxCell>
        <mxCell id="nZ5j-B5OcQxF__eQg0Yg-76" style="edgeStyle=orthogonalEdgeStyle;rounded=0;orthogonalLoop=1;jettySize=auto;html=1;exitX=1;exitY=0.5;exitDx=0;exitDy=0;exitPerimeter=0;entryX=0;entryY=0.5;entryDx=0;entryDy=0;entryPerimeter=0;" edge="1" parent="1" source="nZ5j-B5OcQxF__eQg0Yg-13" target="nZ5j-B5OcQxF__eQg0Yg-16">
          <mxGeometry relative="1" as="geometry" />
        </mxCell>
        <mxCell id="nZ5j-B5OcQxF__eQg0Yg-78" style="edgeStyle=orthogonalEdgeStyle;rounded=0;orthogonalLoop=1;jettySize=auto;html=1;entryX=0;entryY=0.5;entryDx=0;entryDy=0;entryPerimeter=0;" edge="1" parent="1" source="nZ5j-B5OcQxF__eQg0Yg-71" target="nZ5j-B5OcQxF__eQg0Yg-37">
          <mxGeometry relative="1" as="geometry" />
        </mxCell>
        <mxCell id="nZ5j-B5OcQxF__eQg0Yg-79" style="edgeStyle=orthogonalEdgeStyle;rounded=0;orthogonalLoop=1;jettySize=auto;html=1;exitX=1;exitY=0.5;exitDx=0;exitDy=0;exitPerimeter=0;" edge="1" parent="1" source="nZ5j-B5OcQxF__eQg0Yg-37" target="nZ5j-B5OcQxF__eQg0Yg-4">
          <mxGeometry relative="1" as="geometry" />
        </mxCell>
        <mxCell id="nZ5j-B5OcQxF__eQg0Yg-80" style="edgeStyle=orthogonalEdgeStyle;rounded=0;orthogonalLoop=1;jettySize=auto;html=1;exitX=0.5;exitY=0;exitDx=0;exitDy=0;exitPerimeter=0;" edge="1" parent="1" source="nZ5j-B5OcQxF__eQg0Yg-4" target="nZ5j-B5OcQxF__eQg0Yg-2">
          <mxGeometry relative="1" as="geometry" />
        </mxCell>
      </root>
    </mxGraphModel>
  </diagram>
</mxfile>
